<?xml version="1.0" encoding="UTF-8" standalone="no"?>
<svg
   xmlns:dc="http://purl.org/dc/elements/1.1/"
   xmlns:cc="http://creativecommons.org/ns#"
   xmlns:rdf="http://www.w3.org/1999/02/22-rdf-syntax-ns#"
   xmlns:svg="http://www.w3.org/2000/svg"
   xmlns="http://www.w3.org/2000/svg"
   xmlns:xlink="http://www.w3.org/1999/xlink"
   xmlns:sodipodi="http://sodipodi.sourceforge.net/DTD/sodipodi-0.dtd"
   xmlns:inkscape="http://www.inkscape.org/namespaces/inkscape"
   sodipodi:docname="logo.svg"
   inkscape:version="1.0 (4035a4fb49, 2020-05-01)"
   id="svg8"
   version="1.1"
   viewBox="0 0 66.948929 22.748909"
   height="22.748909mm"
   width="66.948929mm">
  <defs
     id="defs2">
    <marker
       inkscape:isstock="true"
       style="overflow:visible"
       id="marker1864"
       refX="0"
       refY="0"
       orient="auto"
       inkscape:stockid="CurveIn">
      <path
         inkscape:connector-curvature="0"
         transform="scale(0.6)"
         style="fill:none;fill-rule:evenodd;stroke:#ffffff;stroke-width:1pt;stroke-opacity:1"
         d="m 4.625493,-5.0456926 c -2.76,0 -5.00000002,2.24 -5.00000002,5.00000002 0,2.75999998 2.24000002,4.99999998 5.00000002,4.99999998"
         id="path1862" />
    </marker>
    <marker
       inkscape:isstock="true"
       style="overflow:visible"
       id="CurveOut"
       refX="0"
       refY="0"
       orient="auto"
       inkscape:stockid="CurveOut">
      <path
         inkscape:connector-curvature="0"
         transform="scale(0.6)"
         style="fill:none;fill-rule:evenodd;stroke:#000000;stroke-width:1pt;stroke-opacity:1"
         d="m -5.4129913,-5.0456926 c 2.76,0 4.99999999,2.24 4.99999999,5.00000002 0,2.75999998 -2.23999999,4.99999998 -4.99999999,4.99999998"
         id="path1127" />
    </marker>
    <marker
       inkscape:isstock="true"
       style="overflow:visible"
       id="CurvyCross"
       refX="0"
       refY="0"
       orient="auto"
       inkscape:stockid="CurvyCross">
      <g
         style="fill:#000000;fill-opacity:1;stroke:#000000;stroke-opacity:1"
         transform="scale(0.6)"
         id="g1134">
        <path
           inkscape:connector-curvature="0"
           style="fill:#000000;fill-opacity:1;fill-rule:evenodd;stroke:#000000;stroke-width:1pt;stroke-opacity:1"
           d="m 4.625493,-5.0456926 c -2.76,0 -5.00000002,2.24 -5.00000002,5.00000002 0,2.75999998 2.24000002,4.99999998 5.00000002,4.99999998"
           id="path1130" />
        <path
           inkscape:connector-curvature="0"
           style="fill:#000000;fill-opacity:1;fill-rule:evenodd;stroke:#000000;stroke-width:1pt;stroke-opacity:1"
           d="m -5.4129913,-5.0456926 c 2.76,0 4.99999999,2.24 4.99999999,5.00000002 0,2.75999998 -2.23999999,4.99999998 -4.99999999,4.99999998"
           id="path1132" />
      </g>
    </marker>
    <marker
       inkscape:isstock="true"
       style="overflow:visible"
       id="Scissors"
       refX="0"
       refY="0"
       orient="auto"
       inkscape:stockid="Scissors">
      <path
         inkscape:connector-curvature="0"
         style="fill:#000000;fill-opacity:1;stroke:#000000;stroke-opacity:1"
         d="M 9.0898857,-3.6061018 C 8.1198849,-4.7769976 6.3697607,-4.7358294 5.0623558,-4.2327734 l -8.2124046,3.0779029 c -2.3882933,-1.3067135 -4.7482873,-0.9325372 -4.7482873,-1.5687873 0,-0.4973164 0.4566662,-0.3883222 0.3883068,-1.6831941 -0.065635,-1.2432767 -1.3635771,-2.1630796 -2.5903987,-2.0816435 -1.227271,-0.00735 -2.499439,0.9331613 -2.510341,2.2300611 -0.09143,1.3063864 1.007209,2.5196896 2.306764,2.6052316 1.5223406,0.2266616 4.218258,-0.6955566 5.482945,1.57086006 -0.9422847,1.73825774 -2.6140244,1.74307674 -4.1255107,1.65607034 -1.2548743,-0.072235 -2.7620933,0.2873979 -3.3606483,1.5208605 -0.578367,1.1820862 -0.0112,2.8646022 1.316749,3.226412 1.3401912,0.4918277 3.1806689,-0.129711 3.4993722,-1.6707242 0.2456585,-1.187823 -0.5953659,-1.7459574 -0.2725074,-2.1771537 0.2436135,-0.32536 1.7907806,-0.1368452 4.5471053,-1.3748244 L 5.6763468,4.2330688 C 6.8000164,4.5467672 8.1730685,4.5362646 9.1684433,3.4313614 l -9.22008423,-3.48508362 z m -18.3078016,-1.900504 c 1.294559,0.7227998 1.1888392,2.6835702 -0.1564272,3.0632889 -1.2165179,0.423661 -2.7710269,-0.7589694 -2.3831779,-2.0774648 0.227148,-1.0818519 1.653387,-1.480632 2.5396051,-0.9858241 z m 0.056264,8.0173649 c 1.3508301,0.4988648 1.1214429,2.7844356 -0.2522207,3.091609 -0.9110594,0.3163391 -2.2135494,-0.1387976 -2.3056964,-1.2121394 -0.177609,-1.305055 1.356085,-2.4841482 2.5579171,-1.8794696 z"
         id="schere" />
    </marker>
    <marker
       inkscape:isstock="true"
       style="overflow:visible"
       id="Legs"
       refX="0"
       refY="0"
       orient="auto"
       inkscape:stockid="Legs">
      <g
         style="fill:#000000;fill-opacity:1;stroke:#000000;stroke-opacity:1"
         transform="scale(-0.7)"
         id="g1149">
        <g
           style="fill:#000000;fill-opacity:1;stroke:#000000;stroke-opacity:1"
           transform="matrix(0,-1,-1,0,20.70862,21.31391)"
           id="g1143">
          <path
             inkscape:connector-curvature="0"
             style="fill:#000000;fill-opacity:1;fill-rule:evenodd;stroke:#000000;stroke-width:1pt;stroke-opacity:1"
             d="m 21.22125,20.67536 c -6.910151,4.721157 -2.454525,6.606844 -5.841071,13.443235"
             id="path1139" />
          <path
             inkscape:connector-curvature="0"
             style="fill:#000000;fill-opacity:1;fill-rule:evenodd;stroke:#000000;stroke-width:1pt;stroke-opacity:1"
             d="m 21.39811,20.54812 c -1.360509,8.347524 3.536072,8.76994 4.505041,13.824958"
             id="path1141" />
        </g>
        <path
           inkscape:connector-curvature="0"
           style="fill:#000000;fill-opacity:1;fill-rule:evenodd;stroke:#000000;stroke-width:1pt;stroke-opacity:1"
           d="m -14.09007,-6.7318716 -0.922168,4.043383 3.962751,-1.22307 z"
           id="path1145" />
        <path
           inkscape:connector-curvature="0"
           style="fill:#000000;fill-opacity:1;fill-rule:evenodd;stroke:#000000;stroke-width:1pt;stroke-opacity:1"
           d="m -15.215679,4.5567534 1.874127,3.699613 2.266874,-3.472855 z"
           id="path1147" />
      </g>
    </marker>
    <marker
       inkscape:isstock="true"
       style="overflow:visible"
       id="Torso"
       refX="0"
       refY="0"
       orient="auto"
       inkscape:stockid="Torso">
      <g
         style="fill:#000000;fill-opacity:1;stroke:#000000;stroke-opacity:1"
         transform="scale(0.7)"
         id="g1166">
        <path
           inkscape:connector-curvature="0"
           style="fill:#000000;fill-opacity:1;fill-rule:evenodd;stroke:#000000;stroke-width:1.25;stroke-opacity:1"
           d="m -4.7792281,-3.239542 c 2.350374,0.3659393 5.30026732,1.9375477 5.03715532,3.62748546 C -0.00518779,2.0778819 -2.2126741,2.6176539 -4.5630471,2.2517169 -6.9134221,1.8857769 -8.521035,0.75201414 -8.257922,-0.93792336 -7.994809,-2.6278615 -7.1296041,-3.6054813 -4.7792281,-3.239542 Z"
           id="path1152" />
        <path
           inkscape:connector-curvature="0"
           style="fill:#000000;fill-opacity:1;fill-rule:evenodd;stroke:#000000;stroke-width:1pt;stroke-opacity:1"
           d="M 4.4598789,0.08866574 C -2.5564571,-4.378332 5.2248769,-3.9061806 -0.84829578,-8.7197331"
           id="path1154" />
        <path
           inkscape:connector-curvature="0"
           style="fill:#000000;fill-opacity:1;fill-rule:evenodd;stroke:#000000;stroke-width:1pt;stroke-opacity:1"
           d="M 4.9298719,0.05752074 C -1.3872731,1.7494689 1.8027579,5.4782079 -4.9448731,7.5462725"
           id="path1156" />
        <rect
           style="fill:#000000;fill-opacity:1;fill-rule:evenodd;stroke:#000000;stroke-width:1pt;stroke-opacity:1"
           width="2.6366582"
           height="2.7608147"
           x="-10.391706"
           y="-1.7408575"
           transform="matrix(0.527536,-0.849533,0.887668,0.460484,0,0)"
           id="rect1158" />
        <rect
           style="fill:#000000;fill-opacity:1;fill-rule:evenodd;stroke:#000000;stroke-width:1pt;stroke-opacity:1"
           width="2.7327356"
           height="2.8614161"
           x="4.9587269"
           y="-7.9629307"
           transform="matrix(0.671205,-0.741272,0.790802,0.612072,0,0)"
           id="rect1160" />
        <path
           inkscape:connector-curvature="0"
           style="fill:#000000;fill-opacity:1;fill-rule:evenodd;stroke:#000000;stroke-width:1pt;stroke-opacity:1"
           d="m 16.779951,-28.685045 a 0.60731727,0.60731727 0 1 0 -1.214634,0 0.60731727,0.60731727 0 1 0 1.214634,0 z"
           transform="matrix(0,-1.109517,1.109517,0,25.96648,19.71619)"
           id="path1162" />
        <path
           inkscape:connector-curvature="0"
           style="fill:#000000;fill-opacity:1;fill-rule:evenodd;stroke:#000000;stroke-width:1pt;stroke-opacity:1"
           d="m 16.779951,-28.685045 a 0.60731727,0.60731727 0 1 0 -1.214634,0 0.60731727,0.60731727 0 1 0 1.214634,0 z"
           transform="matrix(0,-1.109517,1.109517,0,26.8245,16.99126)"
           id="path1164" />
      </g>
    </marker>
    <marker
       inkscape:isstock="true"
       style="overflow:visible"
       id="CurveIn"
       refX="0"
       refY="0"
       orient="auto"
       inkscape:stockid="CurveIn">
      <path
         inkscape:connector-curvature="0"
         transform="scale(0.6)"
         style="fill:none;fill-rule:evenodd;stroke:#000000;stroke-width:1pt;stroke-opacity:1"
         d="m 4.625493,-5.0456926 c -2.76,0 -5.00000002,2.24 -5.00000002,5.00000002 0,2.75999998 2.24000002,4.99999998 5.00000002,4.99999998"
         id="path1124" />
    </marker>
    <marker
       inkscape:isstock="true"
       style="overflow:visible"
       id="DiamondM"
       refX="0"
       refY="0"
       orient="auto"
       inkscape:stockid="DiamondM">
      <path
         inkscape:connector-curvature="0"
         transform="scale(0.4)"
         style="fill:#000000;fill-opacity:1;fill-rule:evenodd;stroke:#000000;stroke-width:1pt;stroke-opacity:1"
         d="M 0,-7.0710768 -7.0710894,0 0,7.0710589 7.0710462,0 Z"
         id="path1022" />
    </marker>
    <linearGradient
       id="linearGradient862"
       inkscape:collect="always">
      <stop
         id="stop858"
         offset="0"
         style="stop-color:#0088aa;stop-opacity:1;" />
      <stop
         id="stop860"
         offset="1"
         style="stop-color:#00e84e;stop-opacity:1" />
    </linearGradient>
    <linearGradient
       y2="93.081512"
       x2="25.217955"
       y1="51.703701"
       x1="25.217955"
       gradientUnits="userSpaceOnUse"
       id="linearGradient951"
       xlink:href="#linearGradient862"
       inkscape:collect="always" />
    <marker
       inkscape:isstock="true"
       style="overflow:visible"
       id="CurveIn-7"
       refX="0"
       refY="0"
       orient="auto"
       inkscape:stockid="CurveIn">
      <path
         transform="scale(0.6)"
         style="fill:none;fill-rule:evenodd;stroke:#ffffff;stroke-width:1pt;stroke-opacity:1"
         d="m 4.625493,-5.0456926 c -2.76,0 -5.00000002,2.24 -5.00000002,5.00000002 0,2.75999998 2.24000002,4.99999998 5.00000002,4.99999998"
         id="path1124-5"
         inkscape:connector-curvature="0" />
    </marker>
  </defs>
  <sodipodi:namedview
     inkscape:document-rotation="0"
     inkscape:snap-global="false"
     inkscape:window-maximized="1"
     inkscape:window-y="0"
     inkscape:window-x="0"
     inkscape:window-height="863"
     inkscape:window-width="1600"
     fit-margin-bottom="0"
     fit-margin-right="0"
     fit-margin-left="0"
     fit-margin-top="0"
     inkscape:guide-bbox="true"
     showguides="true"
     showgrid="true"
     inkscape:current-layer="layer1"
     inkscape:document-units="mm"
     inkscape:cy="28.35092"
     inkscape:cx="91.803456"
     inkscape:zoom="2.693089"
     inkscape:pageshadow="2"
     inkscape:pageopacity="0.0"
     borderopacity="1.0"
     bordercolor="#666666"
     pagecolor="#ffffff"
     id="base">
    <inkscape:grid
       originy="0.75972209"
       originx="5.7108573"
       id="grid6141"
       type="xygrid" />
    <sodipodi:guide
       inkscape:locked="false"
       id="guide6143"
       orientation="0,1"
       position="20.310455,12.548138" />
    <sodipodi:guide
       inkscape:locked="false"
       id="guide6154"
       orientation="1,0"
       position="40.602785,15.48642" />
  </sodipodi:namedview>
  <metadata
     id="metadata5">
    <rdf:RDF>
      <cc:Work
         rdf:about="">
        <dc:format>image/svg+xml</dc:format>
        <dc:type
           rdf:resource="http://purl.org/dc/dcmitype/StillImage" />
        <dc:title></dc:title>
      </cc:Work>
    </rdf:RDF>
  </metadata>
  <g
     transform="translate(29.596342,-76.580381)"
     id="layer1"
     inkscape:groupmode="layer"
     inkscape:label="Layer 1">
    <g
       id="flowRoot815"
       style="font-style:normal;font-variant:normal;font-weight:normal;font-stretch:normal;font-size:17.3333px;line-height:1.25;font-family:'Droid Sans';-inkscape-font-specification:'Droid Sans';letter-spacing:0px;word-spacing:0px;fill:none;fill-opacity:1;stroke:#323232;stroke-opacity:1"
       transform="matrix(0.26458333,0,0,0.33459047,-0.05824188,-21.323634)"
       aria-label="P" />
    <path
       sodipodi:arc-type="chord"
       sodipodi:open="true"
       sodipodi:end="6.2826966"
       sodipodi:start="0"
       sodipodi:ry="10.673466"
       sodipodi:rx="10.673467"
       sodipodi:cy="87.954834"
       sodipodi:cx="-18.393707"
       sodipodi:type="arc"
       id="path1794"
       style="font-style:normal;font-variant:normal;font-weight:normal;font-stretch:normal;font-size:5.0441px;line-height:1.25;font-family:'Droid Sans';-inkscape-font-specification:'Droid Sans';letter-spacing:0px;word-spacing:0px;fill:#00838f;fill-opacity:1;stroke:none;stroke-width:1.405;stroke-miterlimit:0;stroke-dasharray:none;stroke-opacity:1;stop-color:#000000"
       d="M -7.7202406,87.954834 A 10.673467,10.673466 0 0 1 -18.392403,98.6283 10.673467,10.673466 0 0 1 -29.067174,87.957442 10.673467,10.673466 0 0 1 -18.397619,77.281369 10.673467,10.673466 0 0 1 -7.7202419,87.949618 Z" />
    <path
       d="m -5.6055611,99.24041 h 1.1372654 V 88.831935 h 4.61023036 c 3.35961034,0 4.75129734,-0.862281 5.64744184,-1.583068 0.7947402,-0.548575 2.087926,-1.710985 1.950639,-4.35933 C 7.7081297,82.274362 8.0002304,80.205132 5.6172689,78.013101 4.123814,77.12412 3.2059609,76.693142 -0.24766267,76.693142 H -5.6055611 Z m 1.1372654,-11.620229 v -9.715279 h 3.4089735 c 2.7596444,0 4.4803649,0.222263 5.454357,0.698486 1.4285223,0.698481 2.1752502,2.190696 2.1752502,4.286149 0,1.809707 -0.7467279,3.270173 -1.9804515,3.93691 -1.0064588,0.571485 -2.4025146,0.793734 -4.61023076,0.793734 z"
       style="font-style:normal;font-variant:normal;font-weight:normal;font-stretch:normal;font-size:8.22149px;line-height:1.25;font-family:'URW Gothic';-inkscape-font-specification:'URW Gothic';letter-spacing:0px;word-spacing:0px;fill:#333333;fill-opacity:1;stroke:#333333;stroke-width:0.157292;stroke-opacity:1"
       id="path6126"
       inkscape:connector-curvature="0"
       sodipodi:nodetypes="cccscscsccccscscsc" />
    <path
       d="M 9.3358419,99.201245 H 10.540575 V 88.179785 H 20.86245 v 11.02146 l 1.204613,0.03919 v -22.4836 L 20.86245,76.717665 V 86.974481 H 10.540575 V 76.717674 H 9.3358419 Z"
       style="font-style:normal;font-variant:normal;font-weight:normal;font-stretch:normal;font-size:8.22149px;line-height:1.25;font-family:'URW Gothic';-inkscape-font-specification:'URW Gothic';letter-spacing:0px;word-spacing:0px;fill:#333333;fill-opacity:1;stroke:#333333;stroke-width:0.157292;stroke-opacity:1"
       id="path6128"
       inkscape:connector-curvature="0"
       sodipodi:nodetypes="ccccccccccccc" />
    <path
       sodipodi:nodetypes="sssss"
       inkscape:connector-curvature="0"
       id="path6133"
       d="m 36.184704,87.926783 c 0,8.373674 -3.628957,10.573742 -6.123775,10.573742 -2.76782,0 -5.646026,-2.29836 -5.646026,-10.573742 0,-8.807048 2.591087,-10.573747 5.646026,-10.573747 3.259763,0 6.123775,1.805592 6.123775,10.573747 z"
       style="font-style:normal;font-variant:normal;font-weight:normal;font-stretch:normal;font-size:8.22149px;line-height:1.25;font-family:'Droid Sans';-inkscape-font-specification:'Droid Sans';letter-spacing:0px;word-spacing:0px;vector-effect:none;fill:none;fill-opacity:1;stroke:#333333;stroke-width:1.405;stroke-linecap:round;stroke-linejoin:miter;stroke-miterlimit:0;stroke-dasharray:none;stroke-dashoffset:0;stroke-opacity:1" />
    <flowRoot
       transform="matrix(0.26458334,0,0,0.26458333,4.0628916,49.75697)"
       style="font-style:normal;font-variant:normal;font-weight:normal;font-stretch:normal;font-size:17.3333px;line-height:1.25;font-family:'Droid Sans';-inkscape-font-specification:'Droid Sans';letter-spacing:0px;word-spacing:0px;fill:#000000;fill-opacity:1;stroke:none;stroke-width:0.291006;stroke-opacity:1"
       id="flowRoot903"
       xml:space="preserve"><flowRegion
         id="flowRegion905"><rect
           y="-8.492075"
           x="-51.51778"
           height="54.548237"
           width="103.54063"
           id="rect907" /></flowRegion><flowPara
         id="flowPara909" /></flowRoot>
    <g
       transform="matrix(1.3532661,0,0,1.3532661,6.1882894,-33.732408)"
       id="g2309">
      <path
         style="font-style:normal;font-variant:normal;font-weight:normal;font-stretch:normal;font-size:5.0441px;line-height:1.25;font-family:'Droid Sans';-inkscape-font-specification:'Droid Sans';letter-spacing:0px;word-spacing:0px;fill:none;fill-opacity:1;stroke:#ffffff;stroke-width:0.724782;stroke-linecap:butt;stroke-linejoin:miter;stroke-miterlimit:4;stroke-dasharray:none;stroke-opacity:1"
         d="m -21.327405,94.662627 v -8.340409 c 0,0 -3.412371,-0.10397 -3.412371,2.106842 0,2.210812 3.412371,2.031774 3.412371,2.031774"
         id="path919"
         inkscape:connector-curvature="0"
         sodipodi:nodetypes="cczc" />
      <ellipse
         style="font-style:normal;font-variant:normal;font-weight:normal;font-stretch:normal;font-size:5.0441px;line-height:1.25;font-family:'Droid Sans';-inkscape-font-specification:'Droid Sans';letter-spacing:0px;word-spacing:0px;vector-effect:none;fill:none;fill-opacity:1;stroke:#ffffff;stroke-width:0.724782;stroke-linecap:butt;stroke-linejoin:miter;stroke-miterlimit:4;stroke-dasharray:none;stroke-dashoffset:0;stroke-opacity:1"
         id="path923-6"
         cx="-15.411609"
         cy="86.391083"
         rx="1.1845701"
         ry="1.1154765" />
      <path
         style="font-style:normal;font-variant:normal;font-weight:normal;font-stretch:normal;font-size:5.0441px;line-height:1.25;font-family:'Droid Sans';-inkscape-font-specification:'Droid Sans';letter-spacing:0px;word-spacing:0px;fill:none;fill-opacity:1;stroke:#ffffff;stroke-width:0.724782;stroke-linecap:butt;stroke-linejoin:miter;stroke-miterlimit:4;stroke-dasharray:none;stroke-opacity:1;marker-end:url(#marker1864)"
         d="m -21.476213,86.323834 3.134586,0.01632"
         id="path921"
         inkscape:connector-curvature="0"
         sodipodi:nodetypes="cc" />
      <path
         style="font-style:normal;font-variant:normal;font-weight:normal;font-stretch:normal;font-size:5.0441px;line-height:1.25;font-family:'Droid Sans';-inkscape-font-specification:'Droid Sans';letter-spacing:0px;word-spacing:0px;fill:none;fill-opacity:1;stroke:#ffffff;stroke-width:0.724782;stroke-linecap:butt;stroke-linejoin:miter;stroke-miterlimit:4;stroke-dasharray:none;stroke-opacity:1;marker-end:url(#CurveIn-7)"
         d="M -15.412534,87.121678 V 93.11309"
         id="path921-3"
         inkscape:connector-curvature="0"
         sodipodi:nodetypes="cc" />
      <path
         style="font-style:normal;font-variant:normal;font-weight:normal;font-stretch:normal;font-size:5.0441px;line-height:1.25;font-family:'Droid Sans';-inkscape-font-specification:'Droid Sans';letter-spacing:0px;word-spacing:0px;fill:#333333;fill-opacity:1;stroke:#ffffff;stroke-width:0.724782;stroke-linecap:butt;stroke-linejoin:miter;stroke-miterlimit:4;stroke-dasharray:none;stroke-opacity:1"
         d="m -17.650995,90.479622 c 4.152272,-0.0012 3.639611,0.09959 4.246353,0.42525"
         id="path1836"
         inkscape:connector-curvature="0"
         sodipodi:nodetypes="cc" />
    </g>
  </g>
</svg>
